<?xml version="1.0" encoding="UTF-8" standalone="no"?>
<!DOCTYPE svg PUBLIC "-//W3C//DTD SVG 1.1//EN"
 "http://www.w3.org/Graphics/SVG/1.1/DTD/svg11.dtd">
<!-- Generated by graphviz version 2.40.1 (20161225.0304)
 -->
<!-- Title: test Pages: 1 -->
<svg width="234pt" height="219pt"
 viewBox="0.00 0.00 234.00 219.00" xmlns="http://www.w3.org/2000/svg" xmlns:xlink="http://www.w3.org/1999/xlink">
<g id="graph0" class="graph" transform="scale(1 1) rotate(0) translate(4 215)">
<title>test</title>
<polygon fill="#ffffff" stroke="transparent" points="-4,4 -4,-215 230,-215 230,4 -4,4"/>
<!-- test -->
<g id="node1" class="node">
<title>test</title>
<polygon fill="#efefef" stroke="transparent" points="43,-132.5 43,-167.5 183,-167.5 183,-132.5 43,-132.5"/>
<polygon fill="none" stroke="#000000" points="43,-132.5 43,-167.5 183,-167.5 183,-132.5 43,-132.5"/>
<text text-anchor="start" x="49.8678" y="-145.3" font-family="Arial Bold" font-size="18.00" fill="#000000">test</text>
<text text-anchor="start" x="78.8784" y="-145.3" font-family="Arial" font-size="14.00" fill="#000000"> </text>
<text text-anchor="start" x="82.769" y="-145.3" font-family="Arial" font-size="14.00" fill="#666666">[BASE TABLE]</text>
<polygon fill="none" stroke="#000000" points="43,-102.5 43,-132.5 183,-132.5 183,-102.5 43,-102.5"/>
<text text-anchor="start" x="50" y="-113.9" font-family="Arial" font-size="14.00" fill="#000000">id </text>
<text text-anchor="start" x="64.7798" y="-113.9" font-family="Arial" font-size="14.00" fill="#666666">[int]</text>
<polygon fill="none" stroke="#000000" points="43,-72.5 43,-102.5 183,-102.5 183,-72.5 43,-72.5"/>
<text text-anchor="start" x="50" y="-83.9" font-family="Arial" font-size="14.00" fill="#000000">col1 </text>
<text text-anchor="start" x="79.5624" y="-83.9" font-family="Arial" font-size="14.00" fill="#666666">[text]</text>
<polygon fill="none" stroke="#000000" points="43,-42.5 43,-72.5 183,-72.5 183,-42.5 43,-42.5"/>
<text text-anchor="start" x="50" y="-53.9" font-family="Arial" font-size="14.00" fill="#000000">col2 </text>
<text text-anchor="start" x="79.5624" y="-53.9" font-family="Arial" font-size="14.00" fill="#666666">[text]</text>
</g>
</g>
</svg>
